<svg width="20" height="20" viewBox="0 0 20 20" fill="none" xmlns="http://www.w3.org/2000/svg">
<g id="Communication / Mail">
<path id="Style" fill-rule="evenodd" clip-rule="evenodd" d="M15.8333 3.33325H4.16668C2.79177 3.33325 1.67609 4.44316 1.66674 5.81587C1.66654 5.82585 1.66652 5.83583 1.66668 5.84581V14.1666C1.66668 15.5473 2.78597 16.6666 4.16668 16.6666H15.8333C17.2141 16.6666 18.3334 15.5473 18.3334 14.1666V5.84332M16.5732 5.44949L10 9.83075L3.42676 5.44949C3.56559 5.18237 3.84482 4.99992 4.16667 4.99992H15.8333C16.1552 4.99992 16.4344 5.18237 16.5732 5.44949ZM3.33333 7.39035L9.53775 11.5266L9.63396 11.5819C9.89766 11.7109 10.2134 11.6925 10.4622 11.5266L16.6667 7.39035V14.1666C16.6667 14.6268 16.2936 14.9999 15.8333 14.9999H4.16667C3.70643 14.9999 3.33333 14.6268 3.33333 14.1666V7.39035ZM15.8333 3.33325C17.2093 3.33325 18.3256 4.44479 18.3333 5.81889L15.8333 3.33325Z" fill="#CC1414"/>
</g>
</svg>
