<svg width="31" height="24" viewBox="0 0 31 24" fill="none" xmlns="http://www.w3.org/2000/svg">
<path d="M30.9603 14.6736L27.701 0.82125C27.6353 0.537533 27.4733 0.295441 27.2506 0.148147C27.0277 0.00161035 26.7629 -0.0382866 26.5145 0.0378127L22.3058 1.32318C21.9967 1.4175 21.7485 1.67979 21.6425 2.02383L16.0585 1.51083C15.991 1.49975 15.9227 1.49975 15.8552 1.51083L9.3994 2.49274C9.42102 2.23341 9.36157 1.97382 9.23119 1.75981C9.10082 1.54579 8.9084 1.39112 8.68766 1.32315L4.47904 0.0377809C4.23062 -0.0383184 3.96577 0.00157734 3.74285 0.148115C3.52016 0.29539 3.35822 0.537489 3.2925 0.821219L0.0332067 14.6736C-0.0333827 14.956 0.000992342 15.257 0.128987 15.5104C0.257195 15.7638 0.46821 15.949 0.715954 16.0251L4.92934 17.3105V17.3107C5.00955 17.3371 5.09279 17.3499 5.17646 17.3492C5.34639 17.3489 5.51352 17.2974 5.66075 17.2004C5.78745 17.1181 5.89534 17.0029 5.97555 16.8637L11.4431 23.0922C12.0269 23.7774 12.8627 24.104 13.6927 23.9707C14.5227 23.8377 15.247 23.2612 15.6421 22.4192L15.8939 22.7061C16.3953 23.2713 17.0722 23.5885 17.7777 23.5885C18.4832 23.5885 19.1603 23.2713 19.6617 22.7061C19.9415 22.3837 20.1536 21.9933 20.2816 21.5641C20.472 21.6148 20.667 21.6407 20.8627 21.6414C21.5751 21.651 22.2605 21.3304 22.7612 20.7531C23.0438 20.4324 23.2576 20.0416 23.386 19.6111C23.5737 19.6589 23.765 19.6847 23.9575 19.6884C24.6649 19.6911 25.3442 19.3734 25.8462 18.8058C26.2397 18.3573 26.4974 17.7775 26.5824 17.1507L30.297 16.0474H30.2968C30.5454 15.9666 30.7553 15.7762 30.8801 15.5181C31.0046 15.2603 31.0336 14.9561 30.9603 14.6736L30.9603 14.6736ZM16.2476 3.7448L21.9961 4.26889L23.8801 12.2792C23.081 11.3635 22.1269 10.2821 21.197 9.23955C19.0079 6.77922 18.6254 6.33788 18.6107 6.32111C18.4821 6.17112 18.3184 6.06596 18.1392 6.01818C17.9599 5.97016 17.7725 5.98149 17.5987 6.05069C15.8309 6.75135 12.9737 7.3969 12.2085 6.77896C12.1648 6.7403 12.1164 6.70163 12.1068 6.52529C12.344 5.92387 14.2762 4.63284 16.2474 3.74474L16.2476 3.7448ZM4.49387 14.8943L2.15474 14.1993L4.91047 2.47608L7.26405 3.1657L4.49387 14.8943ZM24.4569 17.2445C24.1987 17.5484 23.781 17.5817 23.4883 17.3216L23.4109 17.2499L20.1274 13.5097H20.1272C19.8824 13.2309 19.5257 13.1218 19.1912 13.224C18.8568 13.3259 18.5956 13.6237 18.5059 14.0044C18.4164 14.3854 18.5119 14.792 18.7567 15.0708L21.1781 17.8016L21.2266 17.8568L21.3524 17.9947H21.3526C21.504 18.1538 21.5902 18.3779 21.5898 18.6126C21.5896 18.832 21.513 19.0424 21.3768 19.1973C21.0899 19.5113 20.6368 19.5113 20.3501 19.1973L19.4928 18.2265L17.0713 15.4957C16.8936 15.2716 16.643 15.1401 16.378 15.1322C16.1129 15.1243 15.8565 15.2403 15.6689 15.4536C15.481 15.6669 15.3781 15.9585 15.3841 16.2604C15.3902 16.5624 15.5046 16.8483 15.7009 17.0515L18.2677 19.9808C18.4049 20.1352 18.4821 20.3458 18.4821 20.5657C18.4821 20.7854 18.4049 20.996 18.2677 21.1504C17.9829 21.47 17.5257 21.47 17.2409 21.1504L15.5313 19.1973C15.4777 19.1394 15.4194 19.0877 15.3569 19.0429C15.2987 18.9656 15.2503 18.8828 15.1874 18.8112L13.9864 17.4431C13.808 17.2197 13.557 17.0892 13.2919 17.0823C13.0268 17.0754 12.7709 17.1926 12.5836 17.4066C12.3966 17.6206 12.2946 17.9125 12.3015 18.2144C12.3086 18.5163 12.4238 18.802 12.6206 19.0042L13.8168 20.3669C14.1018 20.69 14.1029 21.2148 13.8192 21.5392C13.5358 21.8638 13.0751 21.865 12.7901 21.5419L6.60103 14.4584L8.87246 4.82085L11.1826 4.47335C10.6148 4.95113 10.2481 5.67694 10.1703 6.47589C10.1465 7.30831 10.4925 8.09862 11.0905 8.57767C12.7082 9.88516 16.1467 8.8865 17.6526 8.35158L19.8561 10.8119C22.0694 13.2944 24.4472 16.0417 24.4764 16.075C24.6126 16.2302 24.6891 16.4405 24.6894 16.6597C24.6831 16.8821 24.5994 17.0924 24.4569 17.2446L24.4569 17.2445ZM26.5007 14.8945L23.7304 3.16564L26.0695 2.44846L28.8398 14.1994L26.5007 14.8945Z" fill="#222F44"/>
</svg>
