<svg width="31" height="32" viewBox="0 0 31 32" fill="none" xmlns="http://www.w3.org/2000/svg">
<mask id="path-1-outside-1_12623_87000" maskUnits="userSpaceOnUse" x="2.65503" y="-0.0351562" width="26" height="32" fill="black">
<rect fill="white" x="2.65503" y="-0.0351562" width="26" height="32"/>
<path fill-rule="evenodd" clip-rule="evenodd" d="M15.4991 24.6609C14.7856 24.6609 14.0724 24.3895 13.5292 23.8466L12.2096 22.5241C11.9566 22.2713 11.6303 22.1011 11.2832 22.0353V29.5181L15.5026 27.7902L19.7218 29.5181V22.0342C19.3728 22.0994 19.0444 22.2705 18.7897 22.5249L18.5535 22.7615L17.4734 23.8439C17.3372 23.9801 17.1902 24.0992 17.0352 24.2013C16.5711 24.5076 16.035 24.6609 15.4991 24.6609L15.4991 24.6609ZM20.7424 22.0047H21.9079C23.4404 22.0047 24.6871 20.7571 24.6871 19.2236V17.3543C24.6871 16.8919 24.8773 16.4369 25.2075 16.1062L26.5306 14.7868L26.5316 14.7861C27.6171 13.7002 27.6161 11.9323 26.5292 10.845L25.208 9.52583C24.8771 9.19447 24.6871 8.73939 24.6871 8.27702V6.40768C24.6871 4.85748 23.4404 3.59617 21.9076 3.59617H20.0383C19.5599 3.59617 19.1164 3.41632 18.7881 3.08825L17.4702 1.78113C16.3828 0.694233 14.615 0.692602 13.53 1.77712L12.2099 3.09131C11.8841 3.41678 11.4407 3.59616 10.9611 3.59616H9.09171C7.55922 3.59616 6.31228 4.85748 6.31228 6.40767V8.27701C6.31228 8.73985 6.12275 9.1949 5.79256 9.52534L4.46895 10.8454C3.38325 11.9316 3.38373 13.6994 4.47036 14.7868L5.79162 16.1057C6.12276 16.4368 6.31252 16.8921 6.31252 17.3545V19.2236C6.31252 20.7573 7.55922 22.0049 9.09195 22.0049H10.262V31.039L15.5023 28.8928L20.7423 31.039L20.7424 31.039V22.0047ZM20.7424 20.9845H21.9081C22.8779 20.9845 23.6667 20.1948 23.6667 19.224V17.3546C23.6667 16.6239 23.9655 15.9057 24.4864 15.3843L25.8102 14.0642C26.4975 13.3762 26.4963 12.2563 25.8078 11.5671L24.4866 10.2482C23.9652 9.72633 23.6667 9.00813 23.6667 8.27715V6.4078C23.6667 5.4205 22.8776 4.61707 21.9078 4.61707H20.0385C19.2874 4.61707 18.5876 4.331 18.0682 3.812L16.7502 2.5044C16.0594 1.81378 14.9388 1.81263 14.2512 2.49992L12.9309 3.81435C12.4133 4.33171 11.7135 4.61705 10.9613 4.61705L9.09195 4.61705C8.12235 4.61705 7.33336 5.42048 7.33336 6.40778V8.27712C7.33336 9.00835 7.03479 9.72653 6.51433 10.2477L5.19072 11.5678C4.50294 12.2556 4.50366 13.376 5.19214 14.0647L6.51339 15.3838C7.03477 15.9057 7.33332 16.6239 7.33332 17.3546V19.2239C7.33332 20.1947 8.12238 20.9845 9.09191 20.9845H10.262V20.9817H10.9635C11.6949 20.9817 12.4131 21.28 12.9338 21.8005L14.2537 23.122C14.929 23.7971 16.02 23.8102 16.7111 23.1611C16.7238 23.1491 16.7364 23.1369 16.7488 23.1245L16.9398 22.9333L18.0699 21.8007C18.5911 21.28 19.3093 20.9817 20.041 20.9817H20.7424V20.9845ZM15.503 18.5064C12.3603 18.5064 9.80323 15.9496 9.80323 12.8067C9.80323 9.66399 12.3603 7.10693 15.503 7.10693C18.6459 7.10693 21.2027 9.66375 21.2027 12.8067C21.2027 15.9496 18.6459 18.5064 15.503 18.5064ZM15.503 8.1277C12.923 8.1277 10.8242 10.2264 10.8242 12.8064C10.8242 15.3864 12.9229 17.4854 15.503 17.4854C18.083 17.4854 20.1817 15.3865 20.1817 12.8064C20.1817 10.2267 18.083 8.1277 15.503 8.1277Z"/>
</mask>
<path fill-rule="evenodd" clip-rule="evenodd" d="M15.4991 24.6609C14.7856 24.6609 14.0724 24.3895 13.5292 23.8466L12.2096 22.5241C11.9566 22.2713 11.6303 22.1011 11.2832 22.0353V29.5181L15.5026 27.7902L19.7218 29.5181V22.0342C19.3728 22.0994 19.0444 22.2705 18.7897 22.5249L18.5535 22.7615L17.4734 23.8439C17.3372 23.9801 17.1902 24.0992 17.0352 24.2013C16.5711 24.5076 16.035 24.6609 15.4991 24.6609L15.4991 24.6609ZM20.7424 22.0047H21.9079C23.4404 22.0047 24.6871 20.7571 24.6871 19.2236V17.3543C24.6871 16.8919 24.8773 16.4369 25.2075 16.1062L26.5306 14.7868L26.5316 14.7861C27.6171 13.7002 27.6161 11.9323 26.5292 10.845L25.208 9.52583C24.8771 9.19447 24.6871 8.73939 24.6871 8.27702V6.40768C24.6871 4.85748 23.4404 3.59617 21.9076 3.59617H20.0383C19.5599 3.59617 19.1164 3.41632 18.7881 3.08825L17.4702 1.78113C16.3828 0.694233 14.615 0.692602 13.53 1.77712L12.2099 3.09131C11.8841 3.41678 11.4407 3.59616 10.9611 3.59616H9.09171C7.55922 3.59616 6.31228 4.85748 6.31228 6.40767V8.27701C6.31228 8.73985 6.12275 9.1949 5.79256 9.52534L4.46895 10.8454C3.38325 11.9316 3.38373 13.6994 4.47036 14.7868L5.79162 16.1057C6.12276 16.4368 6.31252 16.8921 6.31252 17.3545V19.2236C6.31252 20.7573 7.55922 22.0049 9.09195 22.0049H10.262V31.039L15.5023 28.8928L20.7423 31.039L20.7424 31.039V22.0047ZM20.7424 20.9845H21.9081C22.8779 20.9845 23.6667 20.1948 23.6667 19.224V17.3546C23.6667 16.6239 23.9655 15.9057 24.4864 15.3843L25.8102 14.0642C26.4975 13.3762 26.4963 12.2563 25.8078 11.5671L24.4866 10.2482C23.9652 9.72633 23.6667 9.00813 23.6667 8.27715V6.4078C23.6667 5.4205 22.8776 4.61707 21.9078 4.61707H20.0385C19.2874 4.61707 18.5876 4.331 18.0682 3.812L16.7502 2.5044C16.0594 1.81378 14.9388 1.81263 14.2512 2.49992L12.9309 3.81435C12.4133 4.33171 11.7135 4.61705 10.9613 4.61705L9.09195 4.61705C8.12235 4.61705 7.33336 5.42048 7.33336 6.40778V8.27712C7.33336 9.00835 7.03479 9.72653 6.51433 10.2477L5.19072 11.5678C4.50294 12.2556 4.50366 13.376 5.19214 14.0647L6.51339 15.3838C7.03477 15.9057 7.33332 16.6239 7.33332 17.3546V19.2239C7.33332 20.1947 8.12238 20.9845 9.09191 20.9845H10.262V20.9817H10.9635C11.6949 20.9817 12.4131 21.28 12.9338 21.8005L14.2537 23.122C14.929 23.7971 16.02 23.8102 16.7111 23.1611C16.7238 23.1491 16.7364 23.1369 16.7488 23.1245L16.9398 22.9333L18.0699 21.8007C18.5911 21.28 19.3093 20.9817 20.041 20.9817H20.7424V20.9845ZM15.503 18.5064C12.3603 18.5064 9.80323 15.9496 9.80323 12.8067C9.80323 9.66399 12.3603 7.10693 15.503 7.10693C18.6459 7.10693 21.2027 9.66375 21.2027 12.8067C21.2027 15.9496 18.6459 18.5064 15.503 18.5064ZM15.503 8.1277C12.923 8.1277 10.8242 10.2264 10.8242 12.8064C10.8242 15.3864 12.9229 17.4854 15.503 17.4854C18.083 17.4854 20.1817 15.3865 20.1817 12.8064C20.1817 10.2267 18.083 8.1277 15.503 8.1277Z" fill="#222F44"/>
<path d="M13.5292 23.8466L13.2461 24.1291L13.2465 24.1295L13.5292 23.8466ZM15.4991 24.6609V25.0609H16.6197L15.7524 24.3513L15.4991 24.6609ZM12.2096 22.5241L12.4928 22.2416L12.4924 22.2412L12.2096 22.5241ZM11.2832 22.0353L11.3577 21.6423L10.8832 21.5524V22.0353H11.2832ZM11.2832 29.5181H10.8832V30.1142L11.4348 29.8883L11.2832 29.5181ZM15.5026 27.7902L15.6542 27.42L15.5026 27.3579L15.351 27.42L15.5026 27.7902ZM19.7218 29.5181L19.5702 29.8883L20.1218 30.1142V29.5181H19.7218ZM19.7218 22.0342H20.1218V21.5525L19.6483 21.641L19.7218 22.0342ZM18.7897 22.5249L18.507 22.2419L18.5067 22.2423L18.7897 22.5249ZM18.5535 22.7615L18.2705 22.4788L18.2704 22.4789L18.5535 22.7615ZM17.4734 23.8439L17.7562 24.1268L17.7565 24.1264L17.4734 23.8439ZM17.0352 24.2013L16.8153 23.8672L16.8148 23.8674L17.0352 24.2013ZM15.4991 24.6609V24.2609H14.3785L15.2458 24.9705L15.4991 24.6609ZM20.7424 22.0047V21.6047H20.3424V22.0047H20.7424ZM25.2075 16.1062L24.9251 15.823L24.9245 15.8236L25.2075 16.1062ZM26.5306 14.7868L26.2907 14.4668L26.2682 14.4837L26.2482 14.5036L26.5306 14.7868ZM26.5316 14.7861L26.7715 15.1062L26.7943 15.0891L26.8145 15.0689L26.5316 14.7861ZM26.5292 10.845L26.8121 10.5622L26.8118 10.5619L26.5292 10.845ZM25.208 9.52583L24.9249 9.80848L24.9253 9.8089L25.208 9.52583ZM18.7881 3.08825L19.0708 2.8053L19.0698 2.80424L18.7881 3.08825ZM17.4702 1.78113L17.1874 2.06404L17.1885 2.06514L17.4702 1.78113ZM13.53 1.77712L13.8122 2.0606L13.8127 2.06003L13.53 1.77712ZM12.2099 3.09131L11.9277 2.80783L11.9271 2.80835L12.2099 3.09131ZM5.79256 9.52534L6.07503 9.80856L6.0755 9.80808L5.79256 9.52534ZM4.46895 10.8454L4.18648 10.5622L4.18605 10.5627L4.46895 10.8454ZM4.47036 14.7868L4.18743 15.0695L4.18777 15.0699L4.47036 14.7868ZM5.79162 16.1057L6.07445 15.8228L6.07421 15.8226L5.79162 16.1057ZM10.262 22.0049H10.662V21.6049H10.262V22.0049ZM10.262 31.039H9.86205V31.635L10.4137 31.4091L10.262 31.039ZM15.5023 28.8928L15.6539 28.5226L15.5023 28.4605L15.3507 28.5226L15.5023 28.8928ZM20.7423 31.039L20.5907 31.4091L20.6787 31.4452L20.7734 31.4377L20.7423 31.039ZM20.7424 31.039L20.7736 31.4377L21.1424 31.4089V31.039H20.7424ZM20.7424 20.9845H20.3424V21.3845H20.7424V20.9845ZM24.4864 15.3843L24.2039 15.1011L24.2034 15.1016L24.4864 15.3843ZM25.8102 14.0642L26.0926 14.3475L26.0932 14.3469L25.8102 14.0642ZM25.8078 11.5671L26.0908 11.2844L26.0904 11.284L25.8078 11.5671ZM24.4866 10.2482L24.2036 10.5309L24.204 10.5313L24.4866 10.2482ZM18.0682 3.812L18.3509 3.52904L18.3499 3.52805L18.0682 3.812ZM16.7502 2.5044L16.4675 2.7873L16.4685 2.78836L16.7502 2.5044ZM14.2512 2.49992L14.5335 2.7834L14.534 2.78281L14.2512 2.49992ZM12.9309 3.81435L12.6487 3.53087L12.6481 3.53144L12.9309 3.81435ZM10.9613 4.61705L10.9613 5.01706H10.9613V4.61705ZM9.09195 4.61705L9.09195 4.21705H9.09195V4.61705ZM6.51433 10.2477L6.7968 10.5309L6.79736 10.5303L6.51433 10.2477ZM5.19072 11.5678L4.90826 11.2846L4.90788 11.2849L5.19072 11.5678ZM5.19214 14.0647L4.90925 14.3475L4.90952 14.3477L5.19214 14.0647ZM6.51339 15.3838L6.79636 15.1011L6.79601 15.1007L6.51339 15.3838ZM10.262 20.9845V21.3845H10.662V20.9845H10.262ZM10.262 20.9817V20.5817H9.86205V20.9817H10.262ZM12.9338 21.8005L13.2168 21.5178L13.2166 21.5176L12.9338 21.8005ZM14.2537 23.122L13.9706 23.4046L13.9709 23.4048L14.2537 23.122ZM16.7111 23.1611L16.985 23.4526L16.9855 23.4522L16.7111 23.1611ZM16.7488 23.1245L17.0316 23.4075L17.0318 23.4072L16.7488 23.1245ZM16.9398 22.9333L17.2228 23.2159L17.2229 23.2158L16.9398 22.9333ZM18.0699 21.8007L17.7872 21.5177L17.7868 21.5182L18.0699 21.8007ZM20.7424 20.9817H21.1424V20.5817H20.7424V20.9817ZM13.2465 24.1295C13.8679 24.7506 14.6842 25.0609 15.4991 25.0609V24.2609C14.8869 24.2609 14.2769 24.0283 13.812 23.5637L13.2465 24.1295ZM11.9265 22.8067L13.2461 24.1291L13.8124 23.5641L12.4928 22.2416L11.9265 22.8067ZM11.2087 22.4283C11.478 22.4793 11.7314 22.6118 11.9269 22.8071L12.4924 22.2412C12.1818 21.9309 11.7827 21.7229 11.3577 21.6423L11.2087 22.4283ZM10.8832 22.0353V29.5181H11.6832V22.0353H10.8832ZM11.4348 29.8883L15.6542 28.1603L15.351 27.42L11.1316 29.148L11.4348 29.8883ZM15.351 28.1603L19.5702 29.8883L19.8734 29.148L15.6542 27.42L15.351 28.1603ZM20.1218 29.5181V22.0342H19.3218V29.5181H20.1218ZM19.0725 22.8078C19.2695 22.611 19.5248 22.478 19.7953 22.4274L19.6483 21.641C19.2209 21.7209 18.8193 21.9299 18.507 22.2419L19.0725 22.8078ZM18.8366 23.0441L19.0728 22.8075L18.5067 22.2423L18.2705 22.4788L18.8366 23.0441ZM18.2704 22.4789L17.1902 23.5614L17.7565 24.1264L18.8367 23.044L18.2704 22.4789ZM17.1905 23.5611C17.0736 23.678 16.9478 23.7799 16.8153 23.8672L17.2551 24.5354C17.4326 24.4185 17.6007 24.2823 17.7562 24.1268L17.1905 23.5611ZM15.4991 25.0609C16.111 25.0609 16.7242 24.8859 17.2556 24.5351L16.8148 23.8674C16.4181 24.1294 15.959 24.2609 15.4991 24.2609V25.0609ZM15.7524 24.3513L15.7524 24.3513L15.2458 24.9705L15.2458 24.9705L15.7524 24.3513ZM20.7424 22.4047H21.9079V21.6047H20.7424V22.4047ZM21.9079 22.4047C23.6616 22.4047 25.0871 20.9778 25.0871 19.2236H24.2871C24.2871 20.5364 23.2192 21.6047 21.9079 21.6047V22.4047ZM25.0871 19.2236V17.3543H24.2871V19.2236H25.0871ZM25.0871 17.3543C25.0871 16.9996 25.234 16.6457 25.4906 16.3889L24.9245 15.8236C24.5206 16.228 24.2871 16.7843 24.2871 17.3543H25.0871ZM25.4899 16.3895L26.8131 15.0701L26.2482 14.5036L24.9251 15.823L25.4899 16.3895ZM26.7705 15.1069L26.7715 15.1062L26.2917 14.4661L26.2907 14.4668L26.7705 15.1069ZM26.8145 15.0689C28.0564 13.8264 28.0548 11.8054 26.8121 10.5622L26.2463 11.1277C27.1774 12.0592 27.1777 13.5739 26.2487 14.5034L26.8145 15.0689ZM26.8118 10.5619L25.4906 9.24276L24.9253 9.8089L26.2466 11.128L26.8118 10.5619ZM25.491 9.24318C25.2338 8.98563 25.0871 8.63173 25.0871 8.27702H24.2871C24.2871 8.84705 24.5203 9.40332 24.9249 9.80848L25.491 9.24318ZM25.0871 8.27702V6.40768H24.2871V8.27702H25.0871ZM25.0871 6.40768C25.0871 4.64093 23.6656 3.19617 21.9076 3.19617V3.99617C23.2151 3.99617 24.2871 5.07404 24.2871 6.40768H25.0871ZM21.9076 3.19617H20.0383V3.99617H21.9076V3.19617ZM20.0383 3.19617C19.662 3.19617 19.3214 3.05568 19.0708 2.8053L18.5053 3.37119C18.9114 3.77696 19.4578 3.99617 20.0383 3.99617V3.19617ZM19.0698 2.80424L17.7518 1.49713L17.1885 2.06514L18.5064 3.37225L19.0698 2.80424ZM17.7529 1.49823C16.5099 0.255727 14.4889 0.253046 13.2472 1.49422L13.8127 2.06003C14.741 1.13216 16.2557 1.13274 17.1874 2.06404L17.7529 1.49823ZM13.2478 1.49364L11.9277 2.80783L12.4921 3.37478L13.8122 2.0606L13.2478 1.49364ZM11.9271 2.80835C11.6797 3.05554 11.3394 3.19616 10.9611 3.19616V3.99616C11.5419 3.99616 12.0885 3.77802 12.4926 3.37426L11.9271 2.80835ZM10.9611 3.19616H9.09171V3.99616H10.9611V3.19616ZM9.09171 3.19616C7.33399 3.19616 5.91229 4.6409 5.91229 6.40767H6.71229C6.71229 5.07405 7.78445 3.99616 9.09171 3.99616V3.19616ZM5.91229 6.40767V8.27701H6.71229V6.40767H5.91229ZM5.91229 8.27701C5.91229 8.63264 5.76569 8.98633 5.50961 9.2426L6.0755 9.80808C6.47982 9.40347 6.71229 8.84706 6.71229 8.27701H5.91229ZM5.51009 9.24212L4.18648 10.5622L4.75141 11.1287L6.07502 9.80856L5.51009 9.24212ZM4.18605 10.5627C2.94402 11.8052 2.94491 13.8262 4.18743 15.0695L4.7533 14.504C3.82255 13.5727 3.82248 12.058 4.75185 11.1282L4.18605 10.5627ZM4.18777 15.0699L5.50903 16.3888L6.07421 15.8226L4.75295 14.5037L4.18777 15.0699ZM5.50879 16.3885C5.76588 16.6456 5.91252 16.9996 5.91252 17.3545H6.71252C6.71252 16.7847 6.47964 16.228 6.07445 15.8228L5.50879 16.3885ZM5.91252 17.3545V19.2236H6.71252V17.3545H5.91252ZM5.91252 19.2236C5.91252 20.9779 7.33804 22.4049 9.09195 22.4049V21.6049C7.78039 21.6049 6.71252 20.5366 6.71252 19.2236H5.91252ZM9.09195 22.4049H10.262V21.6049H9.09195V22.4049ZM10.662 31.039V22.0049H9.86205V31.039H10.662ZM15.3507 28.5226L10.1104 30.6688L10.4137 31.4091L15.6539 29.2629L15.3507 28.5226ZM20.8939 30.6688L15.6539 28.5226L15.3507 29.2629L20.5907 31.4091L20.8939 30.6688ZM20.7113 30.6402L20.7111 30.6402L20.7734 31.4377L20.7736 31.4377L20.7113 30.6402ZM20.3424 22.0047V31.039H21.1424V22.0047H20.3424ZM21.9081 20.5845H20.7424V21.3845H21.9081V20.5845ZM23.2667 19.224C23.2667 19.9743 22.6566 20.5845 21.9081 20.5845V21.3845C23.0993 21.3845 24.0667 20.4153 24.0667 19.224H23.2667ZM23.2667 17.3546V19.224H24.0667V17.3546H23.2667ZM24.2034 15.1016C23.6083 15.6973 23.2667 16.5168 23.2667 17.3546H24.0667C24.0667 16.7309 24.3227 16.1141 24.7693 15.667L24.2034 15.1016ZM25.5278 13.781L24.2039 15.1011L24.7688 15.6676L26.0926 14.3475L25.5278 13.781ZM25.5249 11.8498C26.0578 12.3833 26.058 13.2502 25.5272 13.7815L26.0932 14.3469C26.937 13.5022 26.9348 12.1292 26.0908 11.2844L25.5249 11.8498ZM24.204 10.5313L25.5253 11.8502L26.0904 11.284L24.7692 9.96509L24.204 10.5313ZM23.2667 8.27715C23.2667 9.11512 23.608 9.93473 24.2036 10.5309L24.7696 9.96547C24.3224 9.51794 24.0667 8.90114 24.0667 8.27715H23.2667ZM23.2667 6.4078V8.27715H24.0667V6.4078H23.2667ZM21.9078 5.01707C22.6499 5.01707 23.2667 5.6346 23.2667 6.4078H24.0667C24.0667 5.20641 23.1053 4.21707 21.9078 4.21707V5.01707ZM20.0385 5.01707H21.9078V4.21707H20.0385V5.01707ZM17.7855 4.09497C18.3818 4.69075 19.1841 5.01707 20.0385 5.01707V4.21707C19.3908 4.21707 18.7935 3.97126 18.3509 3.52904L17.7855 4.09497ZM16.4685 2.78836L17.7865 4.09596L18.3499 3.52805L17.032 2.22045L16.4685 2.78836ZM14.534 2.78281C15.0646 2.25249 15.932 2.25198 16.4675 2.7873L17.033 2.22151C16.1868 1.37557 14.813 1.37277 13.9685 2.21702L14.534 2.78281ZM13.2131 4.09782L14.5335 2.7834L13.969 2.21644L12.6487 3.53087L13.2131 4.09782ZM10.9613 5.01706C11.8163 5.01706 12.6188 4.69184 13.2137 4.09725L12.6481 3.53144C12.2078 3.97158 11.6107 4.21705 10.9613 4.21705V5.01706ZM9.09194 5.01705L10.9613 5.01706L10.9613 4.21705L9.09195 4.21705L9.09194 5.01705ZM7.73336 6.40778C7.73336 5.63453 8.35007 5.01705 9.09195 5.01705V4.21705C7.89463 4.21705 6.93336 5.20643 6.93336 6.40778H7.73336ZM7.73336 8.27712V6.40778H6.93336V8.27712H7.73336ZM6.79736 10.5303C7.39208 9.93483 7.73336 9.11525 7.73336 8.27712H6.93336C6.93336 8.90146 6.6775 9.51824 6.2313 9.96502L6.79736 10.5303ZM5.47319 11.851L6.7968 10.5309L6.23187 9.96446L4.90826 11.2846L5.47319 11.851ZM5.47503 13.7819C4.94236 13.249 4.94233 12.3819 5.47357 11.8506L4.90788 11.2849C4.06354 12.1293 4.06496 13.5029 4.90925 14.3475L5.47503 13.7819ZM6.79601 15.1007L5.47476 13.7816L4.90952 14.3477L6.23078 15.6669L6.79601 15.1007ZM7.73332 17.3546C7.73332 16.5168 7.39198 15.6972 6.79636 15.1011L6.23042 15.6665C6.67756 16.1141 6.93332 16.7309 6.93332 17.3546H7.73332ZM7.73332 19.2239V17.3546H6.93332V19.2239H7.73332ZM9.09191 20.5845C8.34368 20.5845 7.73332 19.9742 7.73332 19.2239H6.93332C6.93332 20.4152 7.90107 21.3845 9.09191 21.3845V20.5845ZM10.262 20.5845H9.09191V21.3845H10.262V20.5845ZM10.662 20.9845V20.9817H9.86205V20.9845H10.662ZM10.262 21.3817H10.9635V20.5817H10.262V21.3817ZM10.9635 21.3817C11.5881 21.3817 12.2049 21.6374 12.651 22.0834L13.2166 21.5176C12.6214 20.9226 11.8017 20.5817 10.9635 20.5817V21.3817ZM12.6508 22.0831L13.9706 23.4046L14.5367 22.8393L13.2168 21.5178L12.6508 22.0831ZM13.9709 23.4048C14.7995 24.2331 16.1368 24.2492 16.985 23.4526L16.4373 22.8695C15.9031 23.3712 15.0586 23.361 14.5365 22.8391L13.9709 23.4048ZM16.466 22.8416C16.4564 22.8512 16.4467 22.8607 16.4368 22.87L16.9855 23.4522C17.001 23.4375 17.0164 23.4226 17.0316 23.4075L16.466 22.8416ZM16.6568 22.6506L16.4658 22.8419L17.0318 23.4072L17.2228 23.2159L16.6568 22.6506ZM17.2229 23.2158L18.3531 22.0832L17.7868 21.5182L16.6567 22.6507L17.2229 23.2158ZM18.3526 22.0837C18.7993 21.6374 19.4161 21.3817 20.041 21.3817V20.5817C19.2025 20.5817 18.3828 20.9227 17.7872 21.5177L18.3526 22.0837ZM20.041 21.3817H20.7424V20.5817H20.041V21.3817ZM20.3424 20.9817V20.9845H21.1424V20.9817H20.3424ZM9.40323 12.8067C9.40323 16.1705 12.1394 18.9064 15.503 18.9064V18.1064C12.5812 18.1064 10.2032 15.7287 10.2032 12.8067H9.40323ZM15.503 6.70692C12.1394 6.70692 9.40323 9.44308 9.40323 12.8067H10.2032C10.2032 9.88491 12.5812 7.50693 15.503 7.50693V6.70692ZM21.6027 12.8067C21.6027 9.44284 18.8668 6.70692 15.503 6.70692V7.50693C18.425 7.50693 20.8027 9.88467 20.8027 12.8067H21.6027ZM15.503 18.9064C18.8668 18.9064 21.6027 16.1705 21.6027 12.8067H20.8027C20.8027 15.7287 18.425 18.1064 15.503 18.1064V18.9064ZM11.2242 12.8064C11.2242 10.4473 13.1439 8.5277 15.503 8.5277V7.7277C12.7021 7.7277 10.4242 10.0055 10.4242 12.8064H11.2242ZM15.503 17.0854C13.1439 17.0854 11.2242 15.1655 11.2242 12.8064H10.4242C10.4242 15.6073 12.702 17.8854 15.503 17.8854V17.0854ZM19.7817 12.8064C19.7817 15.1656 17.8621 17.0854 15.503 17.0854V17.8854C18.304 17.8854 20.5817 15.6074 20.5817 12.8064H19.7817ZM15.503 8.5277C17.8621 8.5277 19.7817 10.4476 19.7817 12.8064H20.5817C20.5817 10.0058 18.3039 7.7277 15.503 7.7277V8.5277Z" fill="#222F44" mask="url(#path-1-outside-1_12623_87000)"/>
</svg>
