<svg width="16" height="12" viewBox="0 0 16 12" fill="none" xmlns="http://www.w3.org/2000/svg">
<path d="M1.55821 11.0688H14.4418C15.3012 11.0688 16 10.37 16 9.51064V1.95665C16 1.09727 15.3012 0.398438 14.4418 0.398438L1.55821 0.398568C0.698837 0.398568 0 1.09741 0 1.95678V9.51077C0.000130418 10.37 0.698971 11.0688 1.55821 11.0688V11.0688ZM1.55821 1.41701H14.4418C14.6584 1.41701 14.8516 1.54796 14.9365 1.74034L8.0199 5.9771L1.07293 1.72164C1.16175 1.53787 1.34722 1.41709 1.55824 1.41709L1.55821 1.41701ZM14.4411 10.0508H1.55821C1.26057 10.0508 1.01824 9.80847 1.01824 9.51083L1.01837 2.88173L7.75432 7.00764C7.91488 7.10585 8.12511 7.10585 8.28568 7.00764L14.9819 2.90577V9.51083C14.9819 9.80847 14.7396 10.0507 14.4413 10.0507L14.4411 10.0508Z" fill="#222F44"/>
</svg>
