<svg width="38" height="38" viewBox="0 0 38 38" fill="none" xmlns="http://www.w3.org/2000/svg">
<g id="fi-rr-cookie" clip-path="url(#clip0_3023_230)">
<path id="Vector" d="M15.0415 17.4171C16.3532 17.4171 17.4165 16.3537 17.4165 15.0421C17.4165 13.7304 16.3532 12.6671 15.0415 12.6671C13.7298 12.6671 12.6665 13.7304 12.6665 15.0421C12.6665 16.3537 13.7298 17.4171 15.0415 17.4171Z" fill="#222F43"/>
<path id="Vector_2" d="M29.2915 4.75C30.6032 4.75 31.6665 3.68668 31.6665 2.375C31.6665 1.06332 30.6032 0 29.2915 0C27.9798 0 26.9165 1.06332 26.9165 2.375C26.9165 3.68668 27.9798 4.75 29.2915 4.75Z" fill="#222F43"/>
<path id="Vector_3" d="M34.0415 12.6671C35.3532 12.6671 36.4165 11.6037 36.4165 10.2921C36.4165 8.98038 35.3532 7.91705 34.0415 7.91705C32.7298 7.91705 31.6665 8.98038 31.6665 10.2921C31.6665 11.6037 32.7298 12.6671 34.0415 12.6671Z" fill="#222F43"/>
<path id="Vector_4" d="M15.0415 25.3329C16.3532 25.3329 17.4165 24.2696 17.4165 22.9579C17.4165 21.6463 16.3532 20.5829 15.0415 20.5829C13.7298 20.5829 12.6665 21.6463 12.6665 22.9579C12.6665 24.2696 13.7298 25.3329 15.0415 25.3329Z" fill="#222F43"/>
<path id="Vector_5" d="M22.9585 25.3329C24.2702 25.3329 25.3335 24.2696 25.3335 22.9579C25.3335 21.6463 24.2702 20.5829 22.9585 20.5829C21.6468 20.5829 20.5835 21.6463 20.5835 22.9579C20.5835 24.2696 21.6468 25.3329 22.9585 25.3329Z" fill="#222F43"/>
<path id="Vector_6" d="M37.9098 17.1855C37.8747 16.8195 37.7133 16.477 37.4532 16.217C37.1932 15.957 36.8508 15.7956 36.4848 15.7605C32.8267 15.4081 29.4052 13.7941 26.8067 11.1954C24.2083 8.59663 22.5947 5.17492 22.2427 1.51683C22.2076 1.15079 22.0462 0.808373 21.7862 0.548354C21.5261 0.288335 21.1837 0.126927 20.8177 0.0918333C20.2176 0.03325 19.6128 0 19 0C15.2422 0 11.5687 1.11433 8.44417 3.20208C5.31964 5.28982 2.88436 8.25722 1.4463 11.729C0.00823244 15.2008 -0.368031 19.0211 0.365088 22.7067C1.09821 26.3924 2.90778 29.7778 5.56498 32.435C8.22218 35.0922 11.6077 36.9018 15.2933 37.6349C18.9789 38.368 22.7992 37.9918 26.271 36.5537C29.7428 35.1157 32.7102 32.6804 34.7979 29.5558C36.8857 26.4313 38 22.7578 38 19C38 18.3873 37.9668 17.7824 37.9098 17.1855ZM19 34.8333C14.8007 34.8333 10.7735 33.1652 7.80415 30.1959C4.83483 27.2265 3.16668 23.1993 3.16668 19C3.16668 14.8007 4.83483 10.7735 7.80415 7.80414C10.7735 4.83482 14.8007 3.16667 19 3.16667H19.2692C19.9285 7.05494 21.7808 10.6419 24.5694 13.4306C27.3581 16.2193 30.9451 18.0716 34.8333 18.7308C34.8333 18.8211 34.8333 18.9098 34.8333 19C34.8287 23.1979 33.1591 27.2224 30.1908 30.1908C27.2224 33.1591 23.1979 34.8287 19 34.8333Z" fill="#222F43"/>
</g>
<defs>
<clipPath id="clip0_3023_230">
<rect width="38" height="38" fill="white"/>
</clipPath>
</defs>
</svg>
