<svg width="17" height="17" viewBox="0 0 17 17" fill="none" xmlns="http://www.w3.org/2000/svg">
<path d="M1.65548 13.8881H15.3443C16.2574 13.8881 16.9999 13.1456 16.9999 12.2325V4.20638C16.9999 3.2933 16.2574 2.55078 15.3443 2.55078L1.65548 2.55092C0.742392 2.55092 -0.00012207 3.29343 -0.00012207 4.20652V12.2326C1.64993e-05 13.1456 0.742534 13.8881 1.65548 13.8881V13.8881ZM1.65548 3.63301H15.3443C15.5745 3.63301 15.7797 3.77215 15.8699 3.97655L8.52102 8.47811L1.13987 3.95668C1.23424 3.76143 1.4313 3.6331 1.65551 3.6331L1.65548 3.63301ZM15.3436 12.8064H1.65548C1.33924 12.8064 1.08176 12.5489 1.08176 12.2327L1.0819 5.18928L8.23884 9.57306C8.40943 9.67741 8.6328 9.67741 8.80341 9.57306L15.9181 5.21482V12.2327C15.9181 12.5489 15.6607 12.8063 15.3437 12.8063L15.3436 12.8064Z" fill="#4E5969"/>
</svg>
