<svg width="17" height="17" viewBox="0 0 17 17" fill="none" xmlns="http://www.w3.org/2000/svg">
<g clip-path="url(#clip0_12874_57412)">
<path d="M8.1687 16.912L8.16873 16.912C8.25101 17.0298 8.3857 17.1 8.52943 17.1C8.67317 17.1 8.80786 17.0298 8.89014 16.912L8.89017 16.912C9.00366 16.7494 10.3881 14.7584 11.7445 12.4203C12.4226 11.2514 13.0949 9.99395 13.5979 8.83377C14.0993 7.67723 14.4385 6.6043 14.4385 5.80922C14.4385 2.55072 11.7878 -0.1 8.52943 -0.1C5.27093 -0.1 2.62021 2.55072 2.62021 5.80922C2.62021 6.6043 2.95942 7.67723 3.46085 8.83377C3.96387 9.99395 4.63613 11.2514 5.31429 12.4203C6.67075 14.7584 8.05521 16.7494 8.1687 16.912ZM3.50021 5.80922C3.50021 3.03621 5.75642 0.78 8.52943 0.78C11.3024 0.78 13.5585 3.0362 13.5585 5.80922C13.5585 6.41209 13.314 7.24676 12.9204 8.19501C12.5281 9.13997 11.9928 10.1859 11.4218 11.207C10.3337 13.1529 9.11973 15.0021 8.52943 15.8789C7.93913 15.0021 6.72513 13.1529 5.63698 11.207C5.06597 10.1859 4.53065 9.13997 4.13834 8.19501C3.74467 7.24676 3.50021 6.41209 3.50021 5.80922ZM5.90156 5.80923C5.90156 7.25816 7.08022 8.43681 8.52931 8.43681C9.97824 8.43681 11.1569 7.25815 11.1569 5.80923C11.1569 4.36013 9.97825 3.18147 8.52931 3.18147C7.08022 3.18147 5.90156 4.36013 5.90156 5.80923ZM6.78156 5.80923C6.78156 4.84562 7.56571 4.06147 8.52931 4.06147C9.49291 4.06147 10.2769 4.8456 10.2769 5.80923C10.2769 6.77284 9.49292 7.55681 8.52931 7.55681C7.56569 7.55681 6.78156 6.77282 6.78156 5.80923Z" fill="#4E5969" stroke="#7E7F88" stroke-width="0.2"/>
</g>
<defs>
<clipPath id="clip0_12874_57412">
<rect width="17" height="17" fill="white"/>
</clipPath>
</defs>
</svg>
