<svg width="15" height="16" viewBox="0 0 15 16" fill="none" xmlns="http://www.w3.org/2000/svg">
<path fill-rule="evenodd" clip-rule="evenodd" d="M5.25003 1.87191C5.25003 1.52841 4.91429 1.25 4.50006 1.25C4.08583 1.25 3.74996 1.52841 3.74996 1.87191V2.18668C3.37807 2.19147 3.04757 2.20251 2.75642 2.22771C2.21689 2.27456 1.7277 2.37545 1.29264 2.62513C0.995818 2.79547 0.738556 3.00883 0.533128 3.25496C0.232035 3.61563 0.110379 4.151 0.0540001 4.5984C0.00452836 4.99135 0.000384998 5.47092 8.92164e-06 6.04432V6.1397V6.2054V9.82006C-0.000116662 10.6622 -0.000116637 11.3567 0.0890298 11.9063C0.182573 12.4834 0.386606 12.9931 0.878662 13.4011C1.37072 13.8091 1.98536 13.9783 2.68119 14.0559C3.34402 14.1298 4.18151 14.1297 5.19705 14.1297H9.80286C10.8185 14.1297 11.656 14.1298 12.3188 14.0559C13.0147 13.9783 13.6293 13.8091 14.1213 13.4011C14.6134 12.993 14.8174 12.4834 14.911 11.9063C15.0001 11.3567 15 10.6622 15 9.82006V6.2054V6.14855V6.04432C14.9996 5.47092 14.9955 4.99135 14.946 4.5984C14.8896 4.151 14.768 3.61562 14.4669 3.25496C14.2615 3.00881 14.0041 2.79548 13.7074 2.62513C13.2723 2.37545 12.7831 2.27456 12.2436 2.2277C11.9524 2.20251 11.6219 2.19147 11.25 2.18668V1.87191C11.25 1.52841 10.9142 1.25 10.4999 1.25C10.0857 1.25 9.74998 1.52841 9.74998 1.87191V2.18292H5.24992L5.25003 1.87191ZM13.4999 5.87972C13.4994 5.29725 13.4947 5.04991 13.4541 4.72776C13.4104 4.38178 13.3322 4.211 13.2334 4.09252C13.1307 3.96955 13.0021 3.86283 12.8537 3.77767C12.7109 3.69573 12.5049 3.63086 12.0876 3.59463C11.8545 3.57443 11.5823 3.56495 11.25 3.56048V3.86754C11.25 4.21104 10.9142 4.48956 10.4999 4.48956C10.0857 4.48956 9.74996 4.21104 9.74996 3.86754V3.55664H5.2499V3.86754C5.2499 4.21104 4.91416 4.48956 4.49993 4.48956C4.0857 4.48956 3.74984 4.21104 3.74984 3.86754V3.56048C3.4176 3.56495 3.14538 3.57443 2.91221 3.59463C2.49499 3.63086 2.28892 3.69573 2.14617 3.77767C1.99776 3.86284 1.86919 3.96956 1.7665 4.09252C1.66768 4.21101 1.58933 4.38178 1.54576 4.72776C1.50521 5.04991 1.50037 5.29725 1.49987 5.87972H13.4999ZM1.49987 7.37971V9.77605C1.49987 10.6733 1.5015 11.2835 1.57558 11.7405C1.64677 12.1797 1.77234 12.383 1.93919 12.5214C2.10618 12.6599 2.35139 12.764 2.88102 12.823C3.43212 12.8845 4.16813 12.8858 5.24995 12.8858H9.75001C10.832 12.8858 11.5679 12.8845 12.1189 12.823C12.6486 12.764 12.8938 12.6599 13.0606 12.5214C13.2276 12.383 13.3532 12.1797 13.4244 11.7405C13.4985 11.2835 13.5001 10.6733 13.5001 9.77605L13.4999 7.37971H1.49987Z" fill="white"/>
</svg>
