<svg width="24" height="24" viewBox="0 0 24 24" fill="none" xmlns="http://www.w3.org/2000/svg">
<path fill-rule="evenodd" clip-rule="evenodd" d="M0 7.2C0 3.22355 3.22355 0 7.2 0H16.8C20.7764 0 24 3.22355 24 7.2V16.8C24 20.7764 20.7764 24 16.8 24H7.2C3.22355 24 0 20.7764 0 16.8V7.2ZM7.2 1.6C4.10721 1.6 1.6 4.10721 1.6 7.2V16.8C1.6 19.8928 4.10721 22.4 7.2 22.4H16.8C19.8928 22.4 22.4 19.8928 22.4 16.8V7.2C22.4 4.10721 19.8928 1.6 16.8 1.6H7.2ZM19.2 6.4H17.6V4.8H19.2V6.4ZM6.4 12C6.4 8.90721 8.90721 6.4 12 6.4C15.0928 6.4 17.6 8.90721 17.6 12C17.6 15.0928 15.0928 17.6 12 17.6C8.90721 17.6 6.4 15.0928 6.4 12ZM12 8C9.79086 8 8 9.79086 8 12C8 14.2091 9.79086 16 12 16C14.2091 16 16 14.2091 16 12C16 9.79086 14.2091 8 12 8Z" fill="#222F44"/>
</svg>
