<svg width="24" height="24" viewBox="0 0 24 24" fill="none" xmlns="http://www.w3.org/2000/svg">
<path fill-rule="evenodd" clip-rule="evenodd" d="M2.17099 1.3H21.829C22.31 1.3 22.7 1.68997 22.7 2.17099V21.8289C22.7 22.31 22.31 22.7 21.8289 22.7H2.17099C1.69 22.7 1.3 22.3101 1.3 21.8289V2.17099C1.3 1.68997 1.68997 1.3 2.17099 1.3ZM21.829 0H2.17099C0.972 0 0 0.972 0 2.17099V21.8289C0 23.028 0.972 24 2.17099 24H21.8289C23.028 24 24 23.028 24 21.8289V2.17099C24 0.972 23.028 0 21.829 0ZM7.82133 19.296C8.09168 19.296 8.31082 19.0768 8.31082 18.8065V10.0719C8.31082 9.80151 8.09168 9.58236 7.82133 9.58236H5.73766C5.46731 9.58236 5.24817 9.80151 5.24817 10.0719V18.8065C5.24817 19.0768 5.46731 19.296 5.73766 19.296H7.82133ZM4.8 6.7795C4.8 7.87273 5.68626 8.75899 6.7795 8.75899C7.87278 8.75899 8.75899 7.87273 8.75899 6.7795C8.75899 5.68626 7.87273 4.8 6.7795 4.8C5.68626 4.8 4.8 5.68626 4.8 6.7795ZM18.7499 19.296C18.9985 19.296 19.2 19.0945 19.2 18.8459V14.6185V14.5873C19.2001 12.7431 19.2003 9.4358 15.6402 9.4358C14.0234 9.4358 13.264 10.0277 12.7531 10.7945V10.0324C12.7531 9.78389 12.5516 9.58236 12.303 9.58236H10.1405C9.89195 9.58236 9.69042 9.78389 9.69042 10.0324V18.8459C9.69042 19.0945 9.89195 19.296 10.1405 19.296H12.303C12.5516 19.296 12.7531 19.0945 12.7531 18.8459V14.1204C12.8092 13.4855 13.0887 12.0706 14.4667 12.0706C16.1123 12.0706 16.0797 13.8444 16.066 14.5915C16.0649 14.6509 16.0639 14.7039 16.0639 14.7489V18.8459C16.0639 19.0945 16.2655 19.296 16.514 19.296H18.7499Z" fill="#222F44"/>
</svg>
