<svg width="17" height="17" viewBox="0 0 17 17" fill="none" xmlns="http://www.w3.org/2000/svg">
<path d="M14.6719 17C14.5942 17 14.5166 17 14.439 17C11.9557 16.6895 9.47232 15.8356 7.37699 14.516C5.43686 13.274 3.72956 11.5662 2.48788 9.62557C1.16859 7.52968 0.314938 5.04566 0.00451776 2.56164C-0.0730872 1.24201 0.858172 0.155251 2.09985 0C2.17746 0 2.25506 0 2.33267 0H4.66081C5.82489 0 6.83375 0.853881 6.98896 2.01826C7.06657 2.71689 7.22178 3.41552 7.45459 4.03653C7.76501 4.89041 7.6098 5.82192 6.98896 6.44292L6.36812 7.06393C7.29938 8.46119 8.46346 9.7032 9.93795 10.6347L10.4812 10.0913C11.102 9.47032 12.1109 9.23744 12.9645 9.54795C13.5854 9.78082 14.2838 9.93607 14.9823 10.0137C16.1463 10.169 17 11.1781 17 12.3425V14.6712C17 15.2922 16.7672 15.9132 16.3016 16.3014C15.8359 16.6895 15.2927 17 14.6719 17ZM4.66081 1.55251H2.33267C1.86704 1.63014 1.55662 1.94064 1.55662 2.40639C1.78943 4.65753 2.56548 6.83105 3.80716 8.77169C4.97123 10.5571 6.44573 12.1096 8.23064 13.1963C10.1708 14.4384 12.3437 15.2146 14.5942 15.4475C14.9047 15.4475 15.0599 15.3699 15.2151 15.2146C15.3703 15.0594 15.4479 14.9041 15.4479 14.6712V12.3425C15.4479 11.9543 15.1375 11.6438 14.7495 11.5662C13.9734 11.4886 13.1974 11.2557 12.4213 10.9452C12.1109 10.8676 11.8005 10.9452 11.5677 11.1005L10.5588 12.1096C10.326 12.3425 9.93795 12.4201 9.62753 12.2648C7.5322 11.1005 5.82489 9.39269 4.66081 7.2968C4.58321 6.9863 4.66081 6.59817 4.89363 6.3653L5.90249 5.35616C6.13531 5.12329 6.21291 4.81279 6.0577 4.50228C5.74728 3.72603 5.59207 2.94977 5.43686 2.17352C5.35926 1.86301 5.04884 1.55251 4.66081 1.55251Z" fill="#4E5969"/>
</svg>
