<svg width="16" height="16" viewBox="0 0 16 16" fill="none" xmlns="http://www.w3.org/2000/svg">
<path fill-rule="evenodd" clip-rule="evenodd" d="M1.44733 1.3H14.5527C14.634 1.3 14.7 1.36597 14.7 1.44733V14.5526C14.7 14.634 14.634 14.7 14.5526 14.7H1.44733C1.366 14.7 1.3 14.6341 1.3 14.5526V1.44733C1.3 1.36597 1.36597 1.3 1.44733 1.3ZM14.5527 0H1.44733C0.648 0 0 0.648 0 1.44733V14.5526C0 15.352 0.648 16 1.44733 16H14.5526C15.352 16 16 15.352 16 14.5526V1.44733C16 0.648 15.352 0 14.5527 0ZM5.21422 12.864C5.39445 12.864 5.54055 12.7179 5.54055 12.5377V6.71457C5.54055 6.53434 5.39445 6.38824 5.21422 6.38824H3.82511C3.64487 6.38824 3.49878 6.53434 3.49878 6.71457V12.5377C3.49878 12.7179 3.64487 12.864 3.82511 12.864H5.21422ZM3.2 4.51966C3.2 5.24849 3.79084 5.83933 4.51966 5.83933C5.24852 5.83933 5.83933 5.24849 5.83933 4.51966C5.83933 3.79084 5.24849 3.2 4.51966 3.2C3.79084 3.2 3.2 3.79084 3.2 4.51966ZM12.5 12.864C12.6657 12.864 12.8 12.7296 12.8 12.5639V9.74568V9.72488C12.8001 8.4954 12.8002 6.29053 10.4268 6.29053C9.34893 6.29053 8.84269 6.68511 8.50205 7.19631V6.68829C8.50205 6.52259 8.3677 6.38824 8.20201 6.38824H6.76033C6.59463 6.38824 6.46028 6.52259 6.46028 6.68829V12.5639C6.46028 12.7296 6.59463 12.864 6.76033 12.864H8.20201C8.36774 12.864 8.50205 12.7296 8.50205 12.5639V9.41361C8.53947 8.99032 8.72581 8.04709 9.64447 8.04709C10.7416 8.04709 10.7198 9.22957 10.7107 9.72768C10.7099 9.76729 10.7093 9.80257 10.7093 9.83259V12.5639C10.7093 12.7296 10.8436 12.864 11.0093 12.864H12.5Z" fill="#222F44"/>
</svg>
