<svg width="184" height="70" viewBox="0 0 184 70" fill="none" xmlns="http://www.w3.org/2000/svg">
<g clip-path="url(#clip0_12874_57323)">
<path d="M69.0774 46.5524C62.6111 46.5524 58.3131 41.9832 58.3131 35.1879C58.3131 28.7832 61.6044 24.6045 66.5993 24.6045C67.7222 24.6045 69 24.6826 70.2778 24.7997V31.4779H78.8737V19.2151C75.6599 17.8092 70.8586 16.7938 66.5993 16.7938C58.8165 16.7938 52.9697 20.8944 50.3754 27.4554C49.9495 25.7761 49.1364 24.1749 47.7811 22.6518L52.1178 18.2778L46 12.0684L40.2694 17.8092C38.2559 17.1453 36.1263 16.7938 33.8418 16.7938C24.3165 16.7938 17.8114 22.1832 17.8114 29.8376C17.8114 32.8838 18.8956 35.5004 20.9478 37.7264C18.2761 39.9524 16.6111 42.9986 16.6111 45.8885C16.6111 46.0448 16.6111 46.1619 16.6498 46.2791H13.8232V17.4577H0V24.9169H4.72391V46.2791H0V53.7383H17.3081C16.0303 55.1051 15.2946 56.7454 15.2946 58.5028C15.2946 64.8294 22.6515 69.2034 33.532 69.2034C45.4966 69.2034 53.4343 64.0874 53.4343 56.3939C53.4343 49.9891 48.904 45.8104 41.9343 45.8104H27.6465C25.9815 45.8104 24.7811 44.8731 24.7811 43.311C24.7811 42.4518 25.1684 41.6317 26.0589 40.8897C28.3822 41.827 31.1313 42.2956 34.2677 42.2956C41.0825 42.2956 46.3872 39.8353 48.9428 35.8518C49.0976 46.9039 56.1061 54.3631 66.6381 54.3631C71.362 54.3631 76.5118 53.2696 79.532 51.6684V44.2092C76.6279 45.6933 72.6397 46.5524 69.0774 46.5524ZM27.9175 53.3087H39.9983C42.399 53.3087 44.064 54.7146 44.064 56.8625C44.064 60.0258 39.9209 62.1347 33.9966 62.1347C27.8401 62.1347 23.8519 60.0649 23.8519 56.8625C23.8519 54.7146 25.4394 53.3087 27.9175 53.3087ZM34.2677 36.3205C30.0471 36.3205 27.1818 33.7039 27.1818 29.8376C27.1818 26.0104 30.0471 23.3548 34.2677 23.3548C38.4882 23.3548 41.2761 25.9713 41.2761 29.8376C41.2761 33.7039 38.4495 36.3205 34.2677 36.3205Z" fill="#222F44"/>
<path fill-rule="evenodd" clip-rule="evenodd" d="M15.1398 6.63907C15.1398 10.3101 12.1971 13.2781 8.55735 13.2781C4.91761 13.2781 1.97485 10.271 1.97485 6.63907C1.97485 2.96805 4.91761 0 8.55735 0C12.1971 0 15.1398 2.96805 15.1398 6.63907ZM161.387 53.4648V54.5193H158.677L158.522 53.6601C157.864 54.3631 157.012 54.7146 156.044 54.7146C154.069 54.7146 152.753 53.1524 152.753 50.5749C152.753 47.8802 154.263 46.24 156.586 46.24C157.128 46.24 157.902 46.3181 158.483 46.6305V43.8187L156.973 43.7015V42.6471H159.993V53.3086L161.387 53.4648ZM158.483 52.4104V47.8802C157.941 47.6068 157.089 47.5287 156.702 47.5287C155.231 47.5287 154.379 48.6613 154.379 50.5749C154.379 52.4104 155.231 53.4258 156.508 53.4258C157.167 53.4258 157.864 53.0353 158.483 52.4104ZM113.993 53.4647V54.5191H111.089V49.6375C111.089 47.9582 110.508 47.4895 109.695 47.4895C108.882 47.4895 107.953 47.9582 107.333 48.3878V53.3085L108.689 53.4647V54.5191H104.391V53.4647L105.785 53.3085V47.5676L104.274 47.4505V46.396H107.101L107.295 47.2552C107.953 46.7866 108.96 46.2008 110.121 46.2008C111.438 46.2008 112.599 47.099 112.599 49.325V53.3085L113.993 53.4647ZM114.69 50.4969C114.69 47.9194 116.278 46.2401 118.64 46.2401C121.04 46.2401 122.628 47.9194 122.628 50.4969C122.628 53.0353 121.04 54.7146 118.678 54.7146C116.278 54.7146 114.69 52.9963 114.69 50.4969ZM121.04 50.4969C121.04 48.7004 120.072 47.5288 118.64 47.5288C117.207 47.5288 116.278 48.7004 116.278 50.4969C116.278 52.1762 117.285 53.4259 118.678 53.4259C120.111 53.4259 121.04 52.2543 121.04 50.4969ZM126.965 54.7146C129.056 54.7146 130.217 53.8945 130.217 52.4886C130.217 51.5123 129.675 50.7312 128.32 50.2626L126.539 49.4815C125.997 49.2081 125.687 49.0519 125.687 48.5052C125.687 47.8803 126.152 47.5288 127.197 47.5288C127.584 47.5288 128.049 47.5679 128.475 47.646L128.591 48.8957H129.753V46.7087C129.094 46.3963 128.088 46.2401 127.197 46.2401C125.184 46.2401 124.138 47.0211 124.138 48.4661C124.138 49.5986 124.758 50.3016 125.881 50.7703L127.584 51.4732C128.165 51.7466 128.63 51.9809 128.63 52.5276C128.63 53.1134 128.088 53.4649 127.042 53.4649C126.5 53.4649 125.842 53.3478 125.222 53.1916L125.145 52.02H123.983V54.0117C124.758 54.4803 125.803 54.7146 126.965 54.7146ZM137.884 52.4886C137.884 53.8945 136.722 54.7146 134.631 54.7146C133.47 54.7146 132.424 54.4803 131.65 54.0117V52.02H132.812L132.889 53.1916C133.508 53.3478 134.167 53.4649 134.709 53.4649C135.754 53.4649 136.296 53.1134 136.296 52.5276C136.296 51.9809 135.832 51.7466 135.251 51.4732L133.547 50.7703C132.424 50.3016 131.805 49.5986 131.805 48.4661C131.805 47.0211 132.85 46.2401 134.864 46.2401C135.754 46.2401 136.761 46.3963 137.419 46.7087V48.8957H136.258L136.141 47.646C135.716 47.5679 135.251 47.5288 134.864 47.5288C133.818 47.5288 133.354 47.8803 133.354 48.5052C133.354 49.0519 133.663 49.2081 134.205 49.4815L135.987 50.2626C137.303 50.7312 137.884 51.5123 137.884 52.4886ZM143.034 46.2401C140.672 46.2401 139.084 47.9194 139.084 50.4969C139.084 52.9963 140.672 54.7146 143.072 54.7146C145.434 54.7146 147.022 53.0353 147.022 50.4969C147.022 47.9194 145.434 46.2401 143.034 46.2401ZM143.034 47.5288C144.466 47.5288 145.434 48.7004 145.434 50.4969C145.434 52.2543 144.505 53.4259 143.072 53.4259C141.678 53.4259 140.672 52.1762 140.672 50.4969C140.672 48.7004 141.601 47.5288 143.034 47.5288ZM163.71 50.731H168.938L169.17 50.4186C169.17 47.802 168.008 46.279 165.918 46.279C163.556 46.279 162.123 47.8801 162.123 50.4967C162.123 53.1523 163.633 54.7145 166.072 54.7145C167.04 54.7145 168.008 54.4802 168.589 54.1287L168.357 52.9571C167.854 53.2695 167.118 53.4257 166.305 53.4257C164.678 53.4257 163.827 52.4884 163.71 50.731ZM167.583 49.5594H163.749C163.943 48.2316 164.717 47.4896 165.84 47.4896C166.886 47.4896 167.466 48.1145 167.583 49.5594ZM178.502 53.4648V54.5192H175.791L175.598 53.5429C174.823 54.2458 173.545 54.7145 172.616 54.7145C171.222 54.7145 170.061 53.6991 170.061 52.2541C170.061 50.731 171.338 49.8328 173.313 49.8328C174.126 49.8328 175.017 49.95 175.598 50.0671V49.6766C175.598 48.466 174.901 47.5287 173.468 47.5287C172.616 47.5287 171.609 47.802 170.912 48.2707L170.68 47.0991C171.377 46.6304 172.616 46.279 173.817 46.279C175.907 46.279 177.108 47.6849 177.108 49.7938V53.3867L178.502 53.4648ZM173.12 53.4648C173.817 53.4648 174.862 53.1133 175.559 52.5665V51.1997C175.094 51.0435 174.242 50.9654 173.391 50.9654C172.229 50.9654 171.648 51.434 171.648 52.2151C171.687 52.9571 172.268 53.4648 173.12 53.4648ZM183.768 54.5193V53.4648L182.374 53.3477V42.6471H179.354V43.7015L180.864 43.8187V53.3477L179.47 53.4648V54.5193H183.768ZM111.283 65.7667H106.056C106.172 67.5241 107.024 68.4614 108.65 68.4614C109.463 68.4614 110.199 68.3052 110.702 67.9928L110.934 69.1644C110.354 69.5158 109.386 69.7502 108.418 69.7502C105.978 69.7502 104.468 68.188 104.468 65.5324C104.468 62.9158 105.901 61.3147 108.263 61.3147C110.354 61.3147 111.515 62.8377 111.515 65.4543L111.283 65.7667ZM106.094 64.5951H109.928C109.812 63.1502 109.231 62.5253 108.185 62.5253C107.062 62.5644 106.288 63.3064 106.094 64.5951ZM106.714 60.4555L106.133 59.7525L108.689 57.3703L109.657 58.4247L106.714 60.4555ZM120.731 68.5003C119.027 68.5003 118.098 67.3287 118.098 65.4932C118.098 63.7749 118.988 62.5642 120.382 62.5642C120.847 62.5642 121.35 62.6814 121.776 62.8766L121.892 64.5169H123.054V62.2127C122.512 61.666 121.389 61.3145 120.343 61.3145C118.136 61.3145 116.51 62.9938 116.51 65.5713C116.51 68.1098 118.098 69.7891 120.576 69.7891C121.466 69.7891 122.512 69.5547 123.054 69.2033L122.822 68.0317C122.357 68.305 121.389 68.5003 120.731 68.5003ZM124.099 65.5324C124.099 62.9549 125.687 61.2756 128.049 61.2756C130.45 61.2756 132.037 62.9549 132.037 65.5324C132.037 68.0709 130.45 69.7502 128.088 69.7502C125.687 69.7502 124.099 68.0709 124.099 65.5324ZM130.45 65.5324C130.45 63.7359 129.482 62.5644 128.049 62.5644C126.616 62.5644 125.687 63.7359 125.687 65.5324C125.687 67.2117 126.694 68.4614 128.088 68.4614C129.482 68.4614 130.45 67.2898 130.45 65.5324ZM146.906 69.5937V68.5393L145.473 68.344V64.3606C145.473 62.1345 144.311 61.2363 142.995 61.2363C141.756 61.2363 140.749 61.9783 140.13 62.5251C139.704 61.6268 138.891 61.2363 138.039 61.2363C136.916 61.2363 136.103 61.8221 135.522 62.2908L135.328 61.4316H132.502V62.486L134.012 62.6032V68.344L132.618 68.5002V69.5547H136.916V68.5002L135.561 68.344V63.4233C136.141 62.9937 136.838 62.5251 137.652 62.5251C138.426 62.5251 139.007 62.9937 139.007 64.673V69.5547H141.911V68.5002L140.556 68.3831V64.3996C140.556 64.0872 140.517 63.8138 140.478 63.5405C141.059 63.0718 141.795 62.5641 142.646 62.5641C143.421 62.5641 144.002 63.0328 144.002 64.7121V69.5937H146.906ZM160.071 62.5253L159.219 62.6034L156.431 69.5939H154.766L151.978 62.6034L151.126 62.5253V61.4709H154.689V62.5253L153.604 62.6034L155.618 68.1099L157.593 62.6034L156.508 62.5253V61.4709H160.071V62.5253ZM164.369 61.2756C162.007 61.2756 160.419 62.9549 160.419 65.5324C160.419 68.0709 162.007 69.7502 164.407 69.7502C166.769 69.7502 168.357 68.0709 168.357 65.5324C168.357 62.9549 166.769 61.2756 164.369 61.2756ZM164.369 62.5644C165.801 62.5644 166.769 63.7359 166.769 65.5324C166.769 67.2898 165.84 68.4614 164.407 68.4614C163.014 68.4614 162.007 67.2117 162.007 65.5324C162.007 63.7359 162.936 62.5644 164.369 62.5644ZM170.951 65.4932C170.951 67.3287 171.88 68.5003 173.584 68.5003C174.242 68.5003 175.21 68.305 175.675 68.0317L175.907 69.2033C175.365 69.5547 174.32 69.7891 173.429 69.7891C170.951 69.7891 169.364 68.1098 169.364 65.5713C169.364 62.9938 170.99 61.3145 173.197 61.3145C174.242 61.3145 175.365 61.666 175.907 62.2127V64.5169H174.746L174.63 62.8766C174.204 62.6814 173.7 62.5642 173.236 62.5642C171.803 62.5642 170.951 63.7749 170.951 65.4932ZM178.54 65.7667H183.768L184 65.4543C184 62.8377 182.838 61.3147 180.748 61.3147C178.386 61.3147 176.953 62.9158 176.953 65.5324C176.953 68.188 178.463 69.7502 180.902 69.7502C181.87 69.7502 182.838 69.5158 183.419 69.1644L183.187 67.9928C182.684 68.3052 181.948 68.4614 181.135 68.4614C179.508 68.4614 178.657 67.5241 178.54 65.7667ZM177.727 59.7135L178.386 60.4164L180.399 58.8543L182.413 60.4164L183.071 59.7135L180.786 57.3703H180.012L177.727 59.7135ZM182.413 64.5951H178.579C178.773 63.3064 179.547 62.5644 180.67 62.5253C181.716 62.5253 182.296 63.1502 182.413 64.5951ZM96.1045 56.3151C98.5826 53.4252 98.2341 49.3636 98.2341 49.3636C97.5372 42.9589 91.7291 43.2323 91.7291 43.2323C88.2055 43.2323 85.3789 46.2394 85.6112 49.8323C85.8048 52.9175 88.283 55.3779 91.3419 55.5731C93.0069 55.6903 94.517 55.1045 95.6786 54.1282C94.3621 57.0572 91.5742 58.2288 89.522 58.6974C89.0961 58.7755 89.1348 59.4394 89.5994 59.4394H89.6382C92.2324 59.4004 94.5557 58.2288 96.1045 56.3151Z" fill="#D3A93D"/>
</g>
<defs>
<clipPath id="clip0_12874_57323">
<rect width="184" height="70" fill="white"/>
</clipPath>
</defs>
</svg>
