<svg width="81" height="70" viewBox="0 0 81 70" fill="none" xmlns="http://www.w3.org/2000/svg">
<g clip-path="url(#clip0_12912_17706)">
<path d="M8.68984 13.4098C12.386 13.4098 15.3743 10.4211 15.3743 6.72446C15.3743 3.02783 12.386 0.0390625 8.68984 0.0390625C4.99372 0.0390625 2.00537 3.02783 2.00537 6.72446C2.00537 10.3818 4.99372 13.4098 8.68984 13.4098Z" fill="#D3A93D"/>
<path d="M70.1476 46.9161C63.5811 46.9161 59.2165 42.315 59.2165 35.4723C59.2165 29.0229 62.5587 24.815 67.6311 24.815C68.7714 24.815 70.0689 24.8937 71.3665 25.0116V31.7364H80.0956V19.388C76.832 17.9723 71.9563 16.9498 67.6311 16.9498C59.7277 16.9498 53.7903 21.079 51.1558 27.6858C50.7233 25.9948 49.8976 24.3824 48.5214 22.8487L52.9252 18.4442L46.7126 12.1914L40.8932 17.9723C38.8485 17.3038 36.6859 16.9498 34.366 16.9498C24.6932 16.9498 18.0874 22.3768 18.0874 30.0847C18.0874 33.1521 19.1883 35.7869 21.2723 38.0285C18.5592 40.2701 16.8684 43.3375 16.8684 46.2476C16.8684 46.4049 16.8684 46.5229 16.9078 46.6408H14.0374V17.6184H0V25.1296H4.79709V46.6408H0V54.1521H17.5762C16.2786 55.5285 15.5316 57.1802 15.5316 58.9498C15.5316 65.3206 23.0024 69.7251 34.0515 69.7251C46.2015 69.7251 54.2621 64.5734 54.2621 56.8262C54.2621 50.3768 49.6616 46.1689 42.584 46.1689H28.0748C26.384 46.1689 25.165 45.2251 25.165 43.6521C25.165 42.7869 25.5583 41.9611 26.4626 41.2139C28.8218 42.1577 31.6136 42.6296 34.7985 42.6296C41.7189 42.6296 47.1058 40.1521 49.701 36.1408C49.8582 47.2701 56.9752 54.7813 67.6704 54.7813C72.4675 54.7813 77.6971 53.6802 80.7641 52.0678V44.5566C77.815 46.051 73.765 46.9161 70.1476 46.9161ZM28.35 53.7195H40.618C43.0558 53.7195 44.7466 55.1352 44.7466 57.2981C44.7466 60.4835 40.5393 62.6071 34.5233 62.6071C28.2714 62.6071 24.2214 60.5229 24.2214 57.2981C24.2214 55.1352 25.8335 53.7195 28.35 53.7195ZM34.7985 36.6128C30.5126 36.6128 27.6029 33.9779 27.6029 30.0847C27.6029 26.2307 30.5126 23.5566 34.7985 23.5566C39.0845 23.5566 41.9155 26.1914 41.9155 30.0847C41.9155 33.9779 39.0451 36.6128 34.7985 36.6128Z" fill="#222F44"/>
</g>
<defs>
<clipPath id="clip0_12912_17706">
<rect width="81" height="70" fill="white"/>
</clipPath>
</defs>
</svg>
