<svg width="100" height="22" viewBox="0 0 100 22" fill="none" xmlns="http://www.w3.org/2000/svg">
<path d="M88.1981 7.57225H88.1171C87.906 7.57456 87.7043 7.65786 87.5559 7.80405C87.4075 7.95025 87.3242 8.14756 87.3243 8.35316V16.0744C87.3243 16.2815 87.4087 16.4802 87.5591 16.6266C87.7095 16.7731 87.9134 16.8553 88.1261 16.8553C88.3387 16.8553 88.5427 16.7731 88.693 16.6266C88.8434 16.4802 88.9279 16.2815 88.9279 16.0744V8.34438C88.9264 8.1504 88.8509 7.96387 88.716 7.82114C88.5811 7.67841 88.3965 7.58969 88.1981 7.57225ZM79.4324 8.34438C79.4305 8.18331 79.3769 8.02685 79.2792 7.8969C79.236 7.83161 79.1773 7.77743 79.108 7.73896H79.045C78.9237 7.66867 78.7854 7.63117 78.6443 7.63033C78.5032 7.6295 78.3644 7.66537 78.2423 7.73423C78.1201 7.80309 78.0191 7.90245 77.9496 8.02205C77.8801 8.14165 77.8446 8.27715 77.8468 8.41457V9.16038C77.532 8.64634 77.0802 8.22486 76.5393 7.94063C75.9985 7.6564 75.3887 7.52001 74.7747 7.54593C74.1482 7.53289 73.5261 7.65154 72.9509 7.8938C72.3756 8.13606 71.8608 8.49624 71.4414 8.9498C70.5416 9.90473 70.06 11.1639 70.099 12.4595C70.0728 13.6071 70.5094 14.719 71.3153 15.5567C71.7143 15.9774 72.2016 16.3096 72.7442 16.5306C73.2867 16.7516 73.8717 16.8564 74.4594 16.8378C75.1272 16.8812 75.7939 16.7394 76.3822 16.4288C76.9706 16.1182 77.4566 15.6515 77.7837 15.0829V15.276V16.0393C77.786 16.2442 77.87 16.4403 78.0179 16.586C78.1659 16.7317 78.3662 16.8157 78.5765 16.8202H78.6306C78.8369 16.8112 79.0317 16.7249 79.1744 16.5795C79.317 16.434 79.3965 16.2405 79.3963 16.0393V8.70412C79.3963 8.70412 79.3963 8.70412 79.3963 8.6427L79.4324 8.34438ZM76.9369 14.4863C76.6479 14.7763 76.2999 15.0042 75.9151 15.1553C75.5303 15.3064 75.1173 15.3774 74.7026 15.3637C74.3218 15.3642 73.9451 15.2863 73.5974 15.1351C73.2496 14.9839 72.9385 14.7628 72.6846 14.4863C72.4075 14.1991 72.1916 13.8612 72.0493 13.4922C71.9071 13.1233 71.8413 12.7305 71.8558 12.3366C71.8217 11.4446 72.1228 10.5711 72.7026 9.87986C72.958 9.57331 73.2808 9.32661 73.6473 9.15802C74.0138 8.98943 74.4145 8.90327 74.8198 8.90593C75.2127 8.90467 75.6016 8.98188 75.9627 9.13279C76.3237 9.28371 76.6491 9.50512 76.9189 9.78334C77.2265 10.0978 77.4651 10.4701 77.62 10.8774C77.7749 11.2847 77.8429 11.7186 77.8198 12.1524C77.8464 12.585 77.7817 13.0184 77.6299 13.4258C77.4781 13.8332 77.2422 14.2061 76.9369 14.5214V14.4863ZM95.2702 7.52838C94.3216 7.51627 93.3907 7.77859 92.5953 8.28214C91.7999 8.78568 91.1758 9.5078 90.8021 10.357C90.4284 11.2062 90.3219 12.1444 90.496 13.0526C90.6701 13.9609 91.1171 14.7983 91.7803 15.459C92.4435 16.1197 93.293 16.5738 94.2214 16.7639C95.1498 16.9539 96.1152 16.8714 96.9954 16.5267C97.8755 16.182 98.6309 15.5907 99.1658 14.8276C99.7006 14.0645 99.9909 13.164 99.9999 12.2401C100.003 11.6306 99.8837 11.0263 99.6475 10.4619C99.4113 9.89739 99.0632 9.38377 98.6232 8.95032C98.1832 8.51687 97.6598 8.17207 97.0829 7.93562C96.5061 7.69917 95.887 7.5757 95.2612 7.57225L95.2702 7.52838ZM96.6756 14.9513C96.2414 15.1708 95.7594 15.2852 95.2702 15.2847C94.6141 15.2804 93.9761 15.0745 93.4472 14.6964C92.9182 14.3183 92.5253 13.7873 92.3243 13.1789C92.1819 12.7375 92.142 12.2709 92.2074 11.8126C92.2729 11.3543 92.442 10.916 92.7026 10.5291C93.0054 10.0868 93.4234 9.73066 93.9138 9.49727C94.4043 9.26389 94.9496 9.1616 95.494 9.20087C96.0384 9.24014 96.5623 9.41957 97.0121 9.72079C97.4619 10.022 97.8215 10.4342 98.054 10.9152C98.4195 11.6423 98.48 12.4794 98.2227 13.2492C97.9655 14.0189 97.4105 14.6609 96.6756 15.0391V14.9513ZM30.063 7.57225C29.1129 7.56182 28.181 7.82669 27.3857 8.33321C26.5905 8.83973 25.9678 9.56505 25.5967 10.417C25.2257 11.269 25.123 12.2091 25.3018 13.1181C25.4806 14.027 25.9327 14.8636 26.6008 15.5217C27.2689 16.1798 28.1227 16.6296 29.0539 16.814C29.9851 16.9985 30.9515 16.9092 31.8304 16.5575C32.7093 16.2058 33.4611 15.6075 33.9901 14.8388C34.5192 14.0701 34.8017 13.1656 34.8018 12.2401C34.8053 11.6306 34.6856 11.0263 34.4494 10.4619C34.2132 9.89739 33.8651 9.38377 33.4251 8.95032C32.985 8.51687 32.4616 8.17207 31.8848 7.93562C31.3079 7.69917 30.6889 7.5757 30.063 7.57225ZM31.4684 14.9952C31.0343 15.2147 30.5522 15.329 30.063 15.3286C29.4069 15.3242 28.769 15.1184 28.24 14.7402C27.7111 14.3621 27.3181 13.8311 27.1171 13.2228C26.969 12.7744 26.9269 12.2992 26.9939 11.8328C27.061 11.3663 27.2356 10.9206 27.5045 10.5291C27.8072 10.0868 28.2252 9.73066 28.7157 9.49727C29.2062 9.26389 29.7515 9.1616 30.2959 9.20087C30.8402 9.24014 31.3641 9.41957 31.8139 9.72079C32.2637 10.022 32.6233 10.4342 32.8558 10.9152C33.2214 11.6423 33.2819 12.4794 33.0246 13.2492C32.7673 14.0189 32.2124 14.6609 31.4775 15.0391L31.4684 14.9952ZM40.8018 7.51084C40.1922 7.52023 39.5993 7.70659 39.0991 8.04606C38.5491 8.41681 38.1131 8.92638 37.8378 9.52012V8.34438C37.8364 8.1504 37.7609 7.96387 37.626 7.82114C37.4911 7.67841 37.3065 7.58969 37.1081 7.57225H37.027C36.8159 7.57456 36.6143 7.65786 36.4659 7.80405C36.3174 7.95025 36.2342 8.14756 36.2342 8.35316V16.0744C36.2342 16.2815 36.3187 16.4802 36.4691 16.6266C36.6194 16.7731 36.8234 16.8553 37.036 16.8553C37.2487 16.8553 37.4526 16.7731 37.603 16.6266C37.7533 16.4802 37.8378 16.2815 37.8378 16.0744V12.5648C37.8047 11.6787 38.0916 10.8093 38.6486 10.108C38.8737 9.80824 39.1678 9.56401 39.5073 9.39488C39.8468 9.22576 40.2223 9.13643 40.6036 9.13406H40.991C41.0973 9.14168 41.2039 9.12503 41.3025 9.08543C41.401 9.04582 41.4887 8.98436 41.5585 8.90593C41.6916 8.74454 41.7618 8.54253 41.7567 8.33561C41.7447 7.78576 41.4264 7.51084 40.8018 7.51084ZM65.1261 7.51084C64.4307 7.50579 63.7465 7.68147 63.1441 8.01974C62.575 8.32687 62.1254 8.80786 61.8648 9.38851V8.34438C61.8634 8.1504 61.7879 7.96387 61.653 7.82114C61.5181 7.67841 61.3335 7.58969 61.1351 7.57225H61.027C60.8238 7.58338 60.6325 7.66935 60.492 7.81273C60.3515 7.95611 60.2722 8.14617 60.2702 8.34438V16.0656C60.2702 16.2728 60.3547 16.4714 60.5051 16.6178C60.6554 16.7643 60.8594 16.8465 61.072 16.8465C61.2847 16.8465 61.4886 16.7643 61.639 16.6178C61.7894 16.4714 61.8738 16.2728 61.8738 16.0656V12.7578C61.8717 12.3767 61.8928 11.9958 61.9369 11.6171C61.9746 11.271 62.0501 10.9298 62.1621 10.5993C62.2658 10.2777 62.4342 9.97941 62.6576 9.72192C62.8901 9.4759 63.1765 9.28398 63.4955 9.16038C63.8935 9.00608 64.3194 8.93148 64.7477 8.94102C66.1831 8.94102 66.9129 9.90618 66.9369 11.8365C66.9369 12.3396 66.9369 13.0737 66.9369 14.0388C66.9369 15.004 66.9369 15.469 66.9369 15.7936C66.9369 16.4693 67.2612 16.7939 67.7927 16.7939C68.3243 16.7939 68.6036 16.5833 68.6936 15.7936V11.4066C68.7574 10.3731 68.4377 9.35169 67.7927 8.52864C67.4673 8.16458 67.0594 7.87916 66.6014 7.69491C66.1433 7.51066 65.6475 7.43263 65.1531 7.46696L65.1261 7.51084ZM81.7026 2.96582C81.49 2.96582 81.286 3.04809 81.1357 3.19454C80.9853 3.34099 80.9008 3.53961 80.9008 3.74672V16.0744C80.9008 16.2815 80.9853 16.4802 81.1357 16.6266C81.286 16.7731 81.49 16.8553 81.7026 16.8553C81.9153 16.8553 82.1192 16.7731 82.2696 16.6266C82.42 16.4802 82.5044 16.2815 82.5044 16.0744V3.71162C82.5047 3.51045 82.4251 3.31697 82.2825 3.17149C82.1398 3.02601 81.945 2.93976 81.7387 2.93072L81.7026 2.96582ZM58.009 7.57225H57.9279C57.7168 7.57456 57.5152 7.65786 57.3667 7.80405C57.2183 7.95025 57.1351 8.14756 57.1351 8.35316V16.0744C57.1351 16.2815 57.2196 16.4802 57.3699 16.6266C57.5203 16.7731 57.7242 16.8553 57.9369 16.8553C58.1495 16.8553 58.3535 16.7731 58.5039 16.6266C58.6542 16.4802 58.7387 16.2815 58.7387 16.0744V8.34438C58.7373 8.1504 58.6617 7.96387 58.5269 7.82114C58.392 7.67841 58.2073 7.58969 58.009 7.57225ZM44.1441 7.57225H44.063C43.8519 7.57456 43.6503 7.65786 43.5019 7.80405C43.3535 7.95025 43.2702 8.14756 43.2702 8.35316V16.0744C43.2702 16.2815 43.3547 16.4802 43.5051 16.6266C43.6554 16.7731 43.8594 16.8553 44.072 16.8553C44.2847 16.8553 44.4886 16.7731 44.639 16.6266C44.7894 16.4802 44.8738 16.2815 44.8738 16.0744V8.34438C44.8724 8.1504 44.7969 7.96387 44.662 7.82114C44.5271 7.67841 44.3425 7.58969 44.1441 7.57225ZM55.09 7.63367C54.9683 7.58121 54.835 7.55912 54.7022 7.56939C54.5695 7.57966 54.4414 7.62197 54.3297 7.6925C54.2179 7.76303 54.126 7.85955 54.0621 7.97337C53.9983 8.08718 53.9645 8.21469 53.9639 8.34438V9.04632C53.6445 8.56822 53.2061 8.17668 52.6894 7.90819C52.1727 7.63969 51.5946 7.503 51.009 7.51084C50.3824 7.49779 49.7603 7.61644 49.1851 7.8587C48.6099 8.10096 48.095 8.46114 47.6756 8.9147C46.7734 9.86814 46.2914 11.1284 46.3333 12.4244C46.3178 13.5819 46.7671 14.6996 47.5856 15.5392C47.9799 15.9656 48.4643 16.3039 49.0054 16.5311C49.5465 16.7582 50.1316 16.8688 50.7207 16.8553C51.3741 16.8625 52.0187 16.7085 52.5946 16.4078C53.1501 16.1192 53.6142 15.6884 53.9369 15.1619V16.557C53.9545 16.9876 53.8839 17.4172 53.7292 17.821C53.5745 18.2247 53.3389 18.5944 53.036 18.9085C52.7423 19.1996 52.3895 19.428 52.0002 19.5791C51.6109 19.7301 51.1935 19.8006 50.7747 19.7859C50.1287 19.7896 49.4885 19.6673 48.8919 19.4262C48.7832 19.3873 48.6778 19.3404 48.5765 19.2858C48.4729 19.2297 48.3644 19.1828 48.2522 19.1454C48.1685 19.1339 48.0836 19.1339 48 19.1454C47.8982 19.1453 47.7977 19.1673 47.7057 19.2098C47.6138 19.2523 47.5327 19.3142 47.4684 19.3911C47.3256 19.5487 47.2457 19.7511 47.2432 19.9614C47.2432 20.3065 47.4744 20.599 47.9369 20.8388C48.8171 21.2338 49.7789 21.426 50.7477 21.4003C51.3892 21.4214 52.0284 21.3164 52.6274 21.0918C53.2264 20.8672 53.7728 20.5276 54.2342 20.093C54.6929 19.6473 55.0491 19.1117 55.2789 18.5218C55.5088 17.9318 55.6072 17.3009 55.5675 16.6711V16.2148V14.7934C55.5675 13.7522 55.5675 11.9974 55.5675 9.52889V8.34438C55.5684 8.1956 55.5257 8.04966 55.4443 7.92375C55.3629 7.79784 55.2462 7.6972 55.1081 7.63367H55.09ZM53.9819 12.7227C53.9005 13.3919 53.5819 14.0125 53.081 14.4775C52.7971 14.7593 52.4576 14.9822 52.0829 15.133C51.7083 15.2838 51.3062 15.3593 50.9009 15.3549C50.517 15.3579 50.1368 15.2812 49.7858 15.1299C49.4347 14.9786 49.1208 14.7562 48.8648 14.4775C48.5862 14.1895 48.3694 13.8503 48.2271 13.4797C48.0848 13.109 48.0198 12.7145 48.036 12.3191C48.0092 11.4191 48.3308 10.5422 48.9369 9.86231C49.1996 9.55748 49.5298 9.31463 49.9028 9.15202C50.2757 8.9894 50.6816 8.91126 51.0901 8.92348C51.4821 8.91917 51.8707 8.99504 52.2307 9.14618C52.5907 9.29732 52.9142 9.52036 53.1801 9.80089C53.6523 10.303 53.935 10.9466 53.9819 11.6259C53.9928 11.8159 53.9928 12.0063 53.9819 12.1962C53.993 12.3716 53.993 12.5474 53.9819 12.7227ZM84.9369 15.3111C84.7801 15.3111 84.6268 15.3564 84.4964 15.4412C84.3661 15.526 84.2644 15.6466 84.2044 15.7877C84.1444 15.9288 84.1287 16.0841 84.1593 16.2338C84.1899 16.3836 84.2654 16.5212 84.3763 16.6292C84.4872 16.7372 84.6284 16.8107 84.7822 16.8405C84.936 16.8703 85.0954 16.855 85.2403 16.7965C85.3851 16.7381 85.5089 16.6391 85.5961 16.5122C85.6832 16.3852 85.7297 16.2359 85.7297 16.0832C85.7297 15.9811 85.7089 15.8799 85.6685 15.7857C85.6281 15.6914 85.5689 15.6059 85.4943 15.5341C85.4197 15.4623 85.3313 15.4056 85.234 15.3673C85.1368 15.329 85.0327 15.3099 84.9279 15.3111H84.9369ZM21.2883 11.1609C21.2135 10.9171 21.0945 10.6883 20.9369 10.4853C20.8561 10.3808 20.7689 10.2811 20.6757 10.187C20.5183 10.0417 20.3462 9.9124 20.1621 9.80089L3.81982 0.473955L3.44144 0.254601C3.11848 0.0909433 2.76044 0.00376714 2.39639 0.000150145C2.08298 -0.00333199 1.77197 0.0537851 1.48137 0.168193C1.19078 0.282601 0.926387 0.452026 0.7035 0.666655C0.480613 0.881283 0.303666 1.13685 0.182907 1.41855C0.0621491 1.70025 -2.03873e-05 2.00249 5.01504e-09 2.30776C0.019079 2.86217 0.217513 3.39655 0.566975 3.83459C0.916436 4.27264 1.39906 4.59196 1.94594 4.74697L2.45045 4.88736V19.628C2.44211 19.7682 2.44211 19.9088 2.45045 20.0491C2.48759 20.2043 2.53575 20.3567 2.59459 20.5054C2.64606 20.6324 2.71258 20.7531 2.79279 20.8651C2.8698 20.978 2.95725 21.0837 3.05405 21.181C3.14658 21.2755 3.24593 21.3635 3.35135 21.4442C3.45491 21.5182 3.56324 21.5856 3.67567 21.646L3.98198 21.7776L4.33333 21.8654H4.7027H4.75675C4.9036 21.8782 5.05134 21.8782 5.19819 21.8654C5.37991 21.8285 5.55781 21.7756 5.72973 21.7074L5.97297 21.5934H6.02702L6.3063 21.4881L6.72072 21.26L19.8198 14.0388L20.2612 13.7844C20.4446 13.6756 20.6139 13.546 20.7658 13.3983C20.8933 13.2678 21.0051 13.1236 21.0991 12.9684C21.1986 12.8069 21.2744 12.6326 21.3243 12.4507C21.3639 12.3099 21.391 12.1661 21.4054 12.0208C21.4191 11.8807 21.4191 11.7397 21.4054 11.5996C21.378 11.4506 21.3388 11.304 21.2883 11.1609ZM2.7027 4.18543L2.5045 4.12401L2.1982 4.04504C1.80125 3.93338 1.44955 3.70472 1.19144 3.39049C0.933326 3.07626 0.781476 2.69189 0.756756 2.29021C0.759121 1.87903 0.927882 1.48535 1.22642 1.1946C1.52495 0.903845 1.92917 0.739484 2.35135 0.73718C2.59959 0.728021 2.84654 0.776123 3.07207 0.877567L3.31531 1.01795L3.44144 1.08815C6.62936 2.98788 9.20237 5.72494 10.8649 8.98489L10.8108 8.97612L10.7117 8.86206L10.5135 8.63393L10.4234 8.53741L10.1892 8.30051L10.1261 8.23909L9.84684 7.97587C7.77753 6.22044 5.33924 4.92677 2.7027 4.18543ZM5.96396 20.8563L5.74774 20.9792L5.56756 21.0581C5.44216 21.1073 5.31252 21.1455 5.18018 21.1722C5.06936 21.1833 4.95766 21.1833 4.84684 21.1722H4.59459L4.35135 21.1108L4.12612 21.0143L3.92793 20.8914L3.72072 20.7072C3.65383 20.6396 3.59351 20.5662 3.54054 20.4878C3.493 20.4193 3.4537 20.3457 3.42342 20.2685C3.37984 20.1598 3.34372 20.0484 3.31531 19.9351C3.30925 19.8298 3.30925 19.7244 3.31531 19.6192V5.14181C4.42017 5.52803 5.48996 6.00349 6.51351 6.56323L6.63963 6.63342L6.88288 6.77381L7.07207 6.88787L7.21621 6.97561C7.5045 7.15109 7.79279 7.33535 8.11711 7.53716L8.42342 7.76529C8.85 8.08587 9.25336 8.43474 9.63062 8.80941C9.89848 9.08636 10.1482 9.3794 10.3784 9.68683L10.4234 9.74825L10.6036 9.99392L10.7027 10.1343L10.8468 10.3624L10.9549 10.5555L11.0721 10.7661C11.1381 10.8947 11.2012 11.0234 11.2613 11.1521L11.3333 11.3188L11.4504 11.6084L11.5135 11.7839C11.5495 11.8891 11.5826 11.9974 11.6126 12.1085L11.7117 12.284C11.7117 12.4331 11.7838 12.5911 11.8108 12.749C11.8108 12.8982 11.8108 13.0473 11.8108 13.1965C11.8108 13.3457 11.8108 13.3106 11.8108 13.372C11.8108 13.4334 11.8108 13.6352 11.8108 13.7668C11.8108 13.8984 11.8108 13.8984 11.8108 13.9598C11.8108 14.0213 11.8108 14.2055 11.7387 14.3196C11.6667 14.4337 11.7387 14.46 11.6937 14.5302C11.6486 14.6004 11.6306 14.7495 11.6036 14.8548C11.5766 14.9601 11.6036 15.0127 11.5315 15.0917C11.4595 15.1707 11.4595 15.2847 11.4234 15.3813C11.3874 15.4778 11.3604 15.5567 11.3153 15.6445L11.2072 15.8726C11.1622 15.9779 11.1081 16.0744 11.054 16.1797L10.964 16.3289C9.76247 18.2499 8.03384 19.8058 5.97297 20.8212L5.96396 20.8563ZM20.5676 12.284C20.5359 12.4012 20.4874 12.5135 20.4234 12.6174C20.3601 12.7248 20.2845 12.8248 20.1982 12.9157C20.0826 13.0121 19.9556 13.0945 19.8198 13.1614L19.3874 13.4158L10.2973 18.4259L10.4234 18.2767L10.6757 17.9784L10.8919 17.7064L11.045 17.5046L11.3063 17.1098L11.4234 16.908C11.5045 16.7676 11.5856 16.6272 11.6576 16.4868L11.7387 16.3201C11.8048 16.1914 11.8649 16.0598 11.9189 15.9253L11.982 15.7761C12.045 15.6269 12.0991 15.469 12.1531 15.3198V15.1882C12.2072 15.0215 12.2522 14.846 12.2973 14.6706V14.5653C12.2973 14.381 12.3694 14.1967 12.3964 14.0037V13.9598C12.4419 13.6253 12.466 13.2883 12.4685 12.9508C12.4685 12.8894 12.4685 12.828 12.4685 12.7666C12.4685 12.7051 12.4685 12.7139 12.4685 12.6788C12.4685 12.6437 12.4685 12.5735 12.4685 12.5121C12.4685 12.4507 12.4685 12.2928 12.4685 12.1875C12.4685 12.0822 12.4685 12.0997 12.4685 12.0559C12.4685 11.7809 12.4294 11.506 12.3513 11.2311V11.1697C12.3513 11.0205 12.2883 10.8626 12.2522 10.7134V10.6695C11.4526 8.00128 9.95292 5.58202 7.9009 3.6502L19.7658 10.4151C19.8979 10.4968 20.0216 10.5909 20.1351 10.6959L20.3243 10.9152C20.3746 10.9821 20.4198 11.0525 20.4594 11.1258C20.498 11.1995 20.5311 11.2757 20.5585 11.3539C20.5875 11.4576 20.6086 11.5631 20.6216 11.6698C20.6304 11.7603 20.6304 11.8513 20.6216 11.9418C20.6152 12.0573 20.5971 12.1719 20.5676 12.284Z" fill="#748CAB"/>
</svg>
