<svg width="19" height="20" viewBox="0 0 19 20" fill="none" xmlns="http://www.w3.org/2000/svg">
<path fill-rule="evenodd" clip-rule="evenodd" d="M0 8.73333C0 4.18619 3.68619 0.5 8.23333 0.5C12.7805 0.5 16.4667 4.18619 16.4667 8.73333C16.4667 10.7789 15.7207 12.6503 14.4859 14.0902L18.8145 18.4188L17.9188 19.3145L13.5902 14.9859C12.1503 16.2207 10.2789 16.9667 8.23333 16.9667C3.68619 16.9667 0 13.2805 0 8.73333ZM8.23333 1.76667C4.38575 1.76667 1.26667 4.88575 1.26667 8.73333C1.26667 12.5809 4.38575 15.7 8.23333 15.7C12.0809 15.7 15.2 12.5809 15.2 8.73333C15.2 4.88575 12.0809 1.76667 8.23333 1.76667Z" fill="#222F44"/>
</svg>
